<svg width="24" height="24" viewBox="0 0 24 24" fill="none" xmlns="http://www.w3.org/2000/svg">
<g opacity="0.9">
<path fill-rule="evenodd" clip-rule="evenodd" d="M16.0194 2.75679C16.4817 2.54918 17.0354 2.72154 17.2942 3.16986L22.2942 11.8301C22.5531 12.2784 22.4255 12.8441 22.0146 13.1406L21.9282 13.1961L8.0718 21.1961C7.62348 21.455 7.05779 21.3274 6.76127 20.9165L6.70577 20.8301L1.70577 12.1699C1.42963 11.6916 1.59351 11.08 2.0718 10.8038L15.9282 2.80383L16.0194 2.75679ZM7.5718 20.3301L9.55757 19.1836L10.9879 13.8427L2.90334 12.2441L7.5718 20.3301ZM14.1011 12.0454L19.4424 13.4766L21.4282 12.3301L16.7597 4.24411L14.1011 12.0454ZM10.7822 18.4766L18.2178 14.1836L13.7782 12.994L13.614 13.4791C13.4524 13.9532 12.9654 14.2344 12.4739 14.1373L11.9709 14.0375L10.7822 18.4766ZM12.668 13.1569L15.7711 4.04925L3.22893 11.2905L12.668 13.1569Z" fill="white"/>
</g>
</svg>
